# xmcd
#
# Track frame offsets:
# 150
# 19564
# 36791
# 50535
# 66549
# 85747
# 105097
# 125272
# 137502
# 156955
# 170204
# 184748
# 209491
# 225104
# 245129
# 268944
# 284612
# 296150
# 308966
#
# Disc length: 4323 seconds
#
# Revision: 1
# Processed by: cddbd v1.4PL0 Copyright (c) Steve Scherf et al.
# Submitted via: Easy CD Ripper v2.13
#
DISCID=1910e113
DTITLE=Buena Vista Social Club - Compay Segundo
DYEAR=2002
DGENRE=Latin
TTITLE0=Ahora Me Da Pena
TTITLE1=Pasaje Para Holguin
TTITLE2=La Bella Cubana
TTITLE3=Lula
TTITLE4=Yo Vengo Aqui
TTITLE5=Sabroso
TTITLE6=Chicharrones
TTITLE7=Se Seco El Arroyito
TTITLE8=Chan Chan
TTITLE9=Un Jardinero De Amor
TTITLE10=Juramento
TTITLE11=Te Doy La Vida
TTITLE12=La Ternera
TTITLE13=Linda Graciela
TTITLE14=Saludo a Chango
TTITLE15=Morir de Amor
TTITLE16=Filiberto
TTITLE17=Un Jardinero de Amor
TTITLE18=El Calderito
EXTD=
EXTT0=
EXTT1=
EXTT2=
EXTT3=
EXTT4=
EXTT5=
EXTT6=
EXTT7=
EXTT8=
EXTT9=
EXTT10=
EXTT11=
EXTT12=
EXTT13=
EXTT14=
EXTT15=
EXTT16=
EXTT17=
EXTT18=
PLAYORDER=
